<svg xmlns="http://www.w3.org/2000/svg" viewBox="0 0 36.113 58.813"><defs><style>.cls-1{fill:#3f4c59}.cls-2{fill:#008489}.cls-3{fill:#f9595c}</style></defs><g id="Layer_2" data-name="Layer 2"><g id="Layer_2-2" data-name="Layer 2"><path class="cls-1" d="M12.213 35.8A18.76 18.76 0 0 1 .715 23.412a18.082 18.082 0 0 1 3.77-16.976 18.157 18.157 0 0 1 7.332-5.12 18.98 18.98 0 0 1 8.732-1.23 20.084 20.084 0 0 1 8.271 2.666 18.937 18.937 0 0 1 6.202 5.907 2.183 2.183 0 0 1-3.48 2.618l-.027-.033a15.772 15.772 0 0 0-5.158-3.96 16.261 16.261 0 0 0-6.183-1.518 13.842 13.842 0 0 0-11.02 4.7 13.403 13.403 0 0 0-2.717 5.365 13.523 13.523 0 0 0 .021 6.067 15.741 15.741 0 0 0 7.556 9.934l.046.027a2.186 2.186 0 0 1-1.847 3.941z"/><path class="cls-2" d="M4.813 6.123l-.016.019z"/><path class="cls-1" d="M24.709 23.335a18.759 18.759 0 0 1 10.91 12.91 18.082 18.082 0 0 1-4.556 16.782 18.157 18.157 0 0 1-7.562 4.774 18.98 18.98 0 0 1-8.78.822 20.084 20.084 0 0 1-8.138-3.048 18.937 18.937 0 0 1-5.921-6.189 2.183 2.183 0 0 1 3.598-2.452l.026.033a15.772 15.772 0 0 0 4.968 4.195 16.261 16.261 0 0 0 6.106 1.805 13.842 13.842 0 0 0 11.226-4.182 13.403 13.403 0 0 0 2.964-5.234 13.523 13.523 0 0 0 .26-6.06 15.741 15.741 0 0 0-7.085-10.275l-.044-.03a2.186 2.186 0 0 1 2.028-3.85z"/><path class="cls-2" d="M31.845 51.744l.016-.02z"/><circle class="cls-3" cx="10.857" cy="10.677" r="7.663"/><circle class="cls-3" cx="25.856" cy="47.511" r="7.663"/></g></g></svg>